<svg xmlns="http://www.w3.org/2000/svg" xmlns:xlink="http://www.w3.org/1999/xlink" id="70093593-85a2-447b-b81e-208691c845a3" data-name="Layer 1" width="1113.8" height="825.71" viewBox="0 0 1113.8 825.71"><defs><linearGradient id="38c043cc-bff7-4144-86c9-76214eedfc2b" x1="879.53" y1="603.57" x2="879.53" y2="231.44" gradientTransform="matrix(-1, 0, 0, 1, 1191.18, 0)" gradientUnits="userSpaceOnUse"><stop offset="0" stop-color="gray" stop-opacity="0.25"/><stop offset="0.54" stop-color="gray" stop-opacity="0.12"/><stop offset="1" stop-color="gray" stop-opacity="0.1"/></linearGradient></defs><title>startup life</title><path d="M534,68.31c-44.08-17.92-90.65-32.88-138.19-31-69.9,2.75-136.94,44.8-169.85,106.53-27.89,52.3-31.33,113.6-43.34,171.64C167.8,387,139.46,454.94,109.18,521.4,92.92,557.1,75.76,593.57,73.1,632.71c-3.71,54.32,22.26,108.46,63,144.6s94.82,55.21,149.11,59.37c28.89,2.21,59.08.16,84.75-13.29,27.14-14.22,46.94-39.93,74.19-53.95,25.26-13,54.81-14.83,83.17-13.13a372.67,372.67,0,0,1,108.58,23.08c39.64,14.89,76.5,36.44,116.05,51.54s83.74,23.51,124.17,10.92c37.94-11.83,68-40.56,95-69.66a1218.85,1218.85,0,0,0,121.17-153.3c24.41-36.56,47.13-75.14,57.93-117.76,20.63-81.48-7.77-173.41-70.76-229C1027.3,226,957.26,206,888.7,193.82c-62.52-11.07-134.81-11.76-192.36-40.62C641.46,125.68,591.52,91.71,534,68.31Z" transform="translate(-43.1 -37.14)" fill="#28a745" opacity="0.1"/><polygon points="934.03 576.92 935.7 578.6 936.45 575.71 935.65 572.86 933.59 572.86 934.03 576.92" fill="#464a5f"/><polygon points="934.03 576.92 935.7 578.6 936.45 575.71 935.65 572.86 933.59 572.86 934.03 576.92" opacity="0.1"/><polygon points="934.03 576.92 935.65 578.65 934.03 580.55 932.29 579.9 931.86 579.06 934.03 576.92" fill="#9c9ca1"/><polygon points="934.03 576.92 935.65 578.65 934.03 580.55 932.29 579.9 931.86 579.06 934.03 576.92" opacity="0.1"/><path d="M669.31,310.28,486.43,493.16a17.58,17.58,0,0,0-.05,24.81L766.7,800.52a17.58,17.58,0,0,0,24.82.13L977.13,617.7Z" transform="translate(-43.1 -37.14)" fill="#9c9ca1"/><path d="M669.31,310.28,486.43,493.16a17.58,17.58,0,0,0-.05,24.81L766.7,800.52a17.58,17.58,0,0,0,24.82.13L977.13,617.7Z" transform="translate(-43.1 -37.14)" opacity="0.1"/><path d="M669.31,306.65,486.43,489.53a17.58,17.58,0,0,0-.05,24.81L766.7,796.88a17.58,17.58,0,0,0,24.82.14l185.61-183Z" transform="translate(-43.1 -37.14)" fill="#9c9ca1"/><path d="M688.51,178.1,671.73,305.44,979.55,612.85l17.68-129.44a18.72,18.72,0,0,0-5.44-15.93l-297-291.56A3.72,3.72,0,0,0,688.51,178.1Z" transform="translate(-43.1 -37.14)" fill="#464a5f"/><path d="M688.51,178.1,671.73,305.44,979.55,612.85l17.68-129.44a18.72,18.72,0,0,0-5.44-15.93l-297-291.56A3.72,3.72,0,0,0,688.51,178.1Z" transform="translate(-43.1 -37.14)" opacity="0.1"/><path d="M686.09,179.31,669.31,306.65,977.13,614.06l17.68-129.44a18.72,18.72,0,0,0-5.44-15.93l-297-291.56A3.72,3.72,0,0,0,686.09,179.31Z" transform="translate(-43.1 -37.14)" fill="#464a5f"/><g opacity="0.1"><path d="M670.13,365.17,659,376.4a3.53,3.53,0,0,0,0,5l11.28,11.57a3.54,3.54,0,0,0,5,.1l11.08-10.46a3.53,3.53,0,0,0,.18-4.95l-11.28-12.34A3.53,3.53,0,0,0,670.13,365.17Z" transform="translate(-43.1 -37.14)"/><path d="M690.87,385.92l-11.09,11.22a3.53,3.53,0,0,0,0,4.95l11.28,11.57a3.53,3.53,0,0,0,5,.1l11.08-10.45a3.55,3.55,0,0,0,.18-5L696,386A3.53,3.53,0,0,0,690.87,385.92Z" transform="translate(-43.1 -37.14)"/><path d="M712.65,407.69l-11.09,11.23a3.54,3.54,0,0,0,0,4.95l11.29,11.57a3.54,3.54,0,0,0,5,.1l11.08-10.46a3.53,3.53,0,0,0,.18-4.95l-11.28-12.34A3.53,3.53,0,0,0,712.65,407.69Z" transform="translate(-43.1 -37.14)"/><path d="M734.67,429.72,723.59,441a3.54,3.54,0,0,0,0,4.95l11.29,11.57a3.54,3.54,0,0,0,5,.1l11.07-10.46a3.52,3.52,0,0,0,.19-4.95L739.8,429.82A3.54,3.54,0,0,0,734.67,429.72Z" transform="translate(-43.1 -37.14)"/><path d="M756.7,451.75,745.62,463a3.54,3.54,0,0,0,0,5l11.29,11.57a3.54,3.54,0,0,0,5,.1l11.07-10.46a3.52,3.52,0,0,0,.19-4.95l-11.28-12.34A3.54,3.54,0,0,0,756.7,451.75Z" transform="translate(-43.1 -37.14)"/><path d="M780.12,472.37l-13.77,13.95a1.66,1.66,0,0,0,0,2.32l13.87,14.21a1.66,1.66,0,0,0,2.32,0l13.77-13a1.65,1.65,0,0,0,.08-2.32l-13.86-15.16A1.66,1.66,0,0,0,780.12,472.37Z" transform="translate(-43.1 -37.14)"/><path d="M802.15,494.4l-13.77,14a1.65,1.65,0,0,0,0,2.31l13.87,14.22a1.66,1.66,0,0,0,2.32,0l13.77-13a1.65,1.65,0,0,0,.08-2.32l-13.86-15.16A1.66,1.66,0,0,0,802.15,494.4Z" transform="translate(-43.1 -37.14)"/><path d="M821.65,513.9l-13.77,14a1.65,1.65,0,0,0,0,2.31l13.87,14.22a1.66,1.66,0,0,0,2.32,0l13.77-13a1.65,1.65,0,0,0,.08-2.32L824.05,514A1.66,1.66,0,0,0,821.65,513.9Z" transform="translate(-43.1 -37.14)"/><path d="M843.49,535.74l-13.77,13.94a1.65,1.65,0,0,0,0,2.32l13.87,14.21a1.65,1.65,0,0,0,2.32,0l13.77-13a1.66,1.66,0,0,0,.08-2.32l-13.86-15.16A1.66,1.66,0,0,0,843.49,535.74Z" transform="translate(-43.1 -37.14)"/><path d="M864.64,556.89l-13.77,13.94a1.65,1.65,0,0,0,0,2.32l13.87,14.22a1.66,1.66,0,0,0,2.32,0l13.77-13a1.66,1.66,0,0,0,.08-2.32L867,556.94A1.66,1.66,0,0,0,864.64,556.89Z" transform="translate(-43.1 -37.14)"/><path d="M885.79,578,872,592a1.65,1.65,0,0,0,0,2.31l13.87,14.22a1.66,1.66,0,0,0,2.32,0l13.77-13a1.65,1.65,0,0,0,.08-2.32l-13.86-15.16A1.66,1.66,0,0,0,885.79,578Z" transform="translate(-43.1 -37.14)"/><path d="M906.94,599.19l-13.77,13.95a1.66,1.66,0,0,0,0,2.32L907,629.67a1.66,1.66,0,0,0,2.32.05l13.77-13a1.65,1.65,0,0,0,.08-2.32l-13.86-15.16A1.66,1.66,0,0,0,906.94,599.19Z" transform="translate(-43.1 -37.14)"/><path d="M650,385.31l-11.08,11.22a3.53,3.53,0,0,0,0,5l11.29,11.57a3.53,3.53,0,0,0,5,.1l11.07-10.45a3.54,3.54,0,0,0,.19-5L655.12,385.4A3.54,3.54,0,0,0,650,385.31Z" transform="translate(-43.1 -37.14)"/><path d="M606,429.3l-11.09,11.22a3.54,3.54,0,0,0,0,5L606.19,457a3.53,3.53,0,0,0,4.95.11l11.08-10.46a3.52,3.52,0,0,0,.18-4.95L611.12,429.4A3.53,3.53,0,0,0,606,429.3Z" transform="translate(-43.1 -37.14)"/><path d="M670.74,406.05l-11.09,11.22a3.53,3.53,0,0,0,0,5l11.28,11.57a3.54,3.54,0,0,0,5,.11L687,423.44a3.55,3.55,0,0,0,.18-5l-11.28-12.33A3.52,3.52,0,0,0,670.74,406.05Z" transform="translate(-43.1 -37.14)"/><path d="M692.51,427.83l-11.08,11.22a3.53,3.53,0,0,0,0,4.95l11.29,11.57a3.53,3.53,0,0,0,5,.1l11.07-10.45a3.54,3.54,0,0,0,.19-5l-11.28-12.34A3.54,3.54,0,0,0,692.51,427.83Z" transform="translate(-43.1 -37.14)"/><path d="M714.54,449.85l-11.08,11.23a3.53,3.53,0,0,0,0,4.95l11.29,11.57a3.52,3.52,0,0,0,4.95.1l11.08-10.45a3.54,3.54,0,0,0,.19-5L719.67,450A3.55,3.55,0,0,0,714.54,449.85Z" transform="translate(-43.1 -37.14)"/><path d="M627.45,449.34l-11.09,11.22a3.53,3.53,0,0,0,0,4.95l11.28,11.57a3.53,3.53,0,0,0,5,.1l11.08-10.45a3.55,3.55,0,0,0,.18-5l-11.28-12.33A3.52,3.52,0,0,0,627.45,449.34Z" transform="translate(-43.1 -37.14)"/><path d="M649.22,471.11l-11.08,11.23a3.53,3.53,0,0,0,0,5l11.29,11.57a3.53,3.53,0,0,0,5,.1l11.07-10.45a3.54,3.54,0,0,0,.19-5l-11.28-12.34A3.54,3.54,0,0,0,649.22,471.11Z" transform="translate(-43.1 -37.14)"/><path d="M671.25,493.14l-11.08,11.23a3.53,3.53,0,0,0,0,4.95l11.29,11.57a3.54,3.54,0,0,0,5,.1l11.07-10.46a3.52,3.52,0,0,0,.19-4.95l-11.28-12.34A3.54,3.54,0,0,0,671.25,493.14Z" transform="translate(-43.1 -37.14)"/><path d="M736.57,471.88l-11.08,11.23a3.53,3.53,0,0,0,0,4.95l11.29,11.57a3.53,3.53,0,0,0,5,.1l11.08-10.45a3.53,3.53,0,0,0,.18-5L741.69,472A3.53,3.53,0,0,0,736.57,471.88Z" transform="translate(-43.1 -37.14)"/><path d="M758.6,493.91l-11.09,11.23a3.53,3.53,0,0,0,0,4.95l11.29,11.57a3.53,3.53,0,0,0,5,.1l11.08-10.46a3.52,3.52,0,0,0,.18-4.95L763.72,494A3.53,3.53,0,0,0,758.6,493.91Z" transform="translate(-43.1 -37.14)"/><path d="M782,514.53l-13.77,14a1.65,1.65,0,0,0,0,2.32L782.11,545a1.65,1.65,0,0,0,2.32,0l13.77-13a1.66,1.66,0,0,0,.08-2.32l-13.86-15.16A1.66,1.66,0,0,0,782,514.53Z" transform="translate(-43.1 -37.14)"/><path d="M801.52,534l-13.77,14a1.65,1.65,0,0,0,0,2.32l13.87,14.21a1.65,1.65,0,0,0,2.32,0l13.77-13a1.66,1.66,0,0,0,.08-2.32l-13.86-15.16A1.66,1.66,0,0,0,801.52,534Z" transform="translate(-43.1 -37.14)"/><path d="M823.36,555.87l-13.78,14a1.65,1.65,0,0,0,0,2.31l13.86,14.22a1.66,1.66,0,0,0,2.32,0l13.77-13a1.65,1.65,0,0,0,.09-2.32l-13.86-15.16A1.66,1.66,0,0,0,823.36,555.87Z" transform="translate(-43.1 -37.14)"/><path d="M844.51,577l-13.77,14a1.65,1.65,0,0,0,0,2.32l13.86,14.21a1.67,1.67,0,0,0,2.33,0l13.76-13a1.65,1.65,0,0,0,.09-2.32l-13.86-15.16A1.66,1.66,0,0,0,844.51,577Z" transform="translate(-43.1 -37.14)"/><path d="M671.58,448.76,660.49,460a3.53,3.53,0,0,0,0,4.95l11.29,11.57a3.52,3.52,0,0,0,5,.1l11.08-10.45a3.54,3.54,0,0,0,.18-5L676.7,448.86A3.52,3.52,0,0,0,671.58,448.76Z" transform="translate(-43.1 -37.14)"/><path d="M693.61,470.79,682.52,482a3.53,3.53,0,0,0,0,4.95l11.29,11.57a3.52,3.52,0,0,0,5,.1l11.08-10.45a3.55,3.55,0,0,0,.18-5l-11.28-12.33A3.52,3.52,0,0,0,693.61,470.79Z" transform="translate(-43.1 -37.14)"/><path d="M715.64,492.82,704.55,504a3.53,3.53,0,0,0,0,4.95l11.28,11.57a3.53,3.53,0,0,0,5,.1l11.08-10.45a3.55,3.55,0,0,0,.18-5l-11.28-12.34A3.53,3.53,0,0,0,715.64,492.82Z" transform="translate(-43.1 -37.14)"/><path d="M737.67,514.85l-11.09,11.22a3.53,3.53,0,0,0,0,4.95l11.28,11.57a3.53,3.53,0,0,0,5,.1l11.08-10.45a3.55,3.55,0,0,0,.18-5l-11.28-12.34A3.53,3.53,0,0,0,737.67,514.85Z" transform="translate(-43.1 -37.14)"/><path d="M761.09,535.47l-13.78,13.94a1.66,1.66,0,0,0,0,2.32l13.86,14.21a1.65,1.65,0,0,0,2.32,0l13.77-13a1.65,1.65,0,0,0,.09-2.32l-13.86-15.17A1.65,1.65,0,0,0,761.09,535.47Z" transform="translate(-43.1 -37.14)"/><path d="M780.59,555l-13.78,13.94a1.66,1.66,0,0,0,0,2.32l13.86,14.21a1.65,1.65,0,0,0,2.32,0l13.77-13a1.65,1.65,0,0,0,.09-2.32L783,555A1.65,1.65,0,0,0,780.59,555Z" transform="translate(-43.1 -37.14)"/><path d="M802.42,576.8l-13.77,14a1.66,1.66,0,0,0,0,2.32l13.86,14.21a1.65,1.65,0,0,0,2.32.05l13.77-13a1.65,1.65,0,0,0,.09-2.32l-13.87-15.16A1.66,1.66,0,0,0,802.42,576.8Z" transform="translate(-43.1 -37.14)"/><path d="M823.58,598,809.8,611.9a1.66,1.66,0,0,0,0,2.32l13.86,14.21a1.65,1.65,0,0,0,2.32.05l13.77-13a1.65,1.65,0,0,0,.09-2.32L826,598A1.64,1.64,0,0,0,823.58,598Z" transform="translate(-43.1 -37.14)"/><path d="M865.66,598.17l-13.77,14a1.65,1.65,0,0,0,0,2.32l13.87,14.21a1.65,1.65,0,0,0,2.32.05l13.77-13a1.66,1.66,0,0,0,.08-2.32l-13.86-15.16A1.66,1.66,0,0,0,865.66,598.17Z" transform="translate(-43.1 -37.14)"/><path d="M886.81,619.33,873,633.27a1.65,1.65,0,0,0,0,2.32L886.9,649.8a1.65,1.65,0,0,0,2.32.05l13.77-13a1.66,1.66,0,0,0,.08-2.32l-13.86-15.16A1.65,1.65,0,0,0,886.81,619.33Z" transform="translate(-43.1 -37.14)"/><path d="M779.66,599.57l-13,13.13a2.22,2.22,0,0,0,0,3.11l13.09,13.42a2.22,2.22,0,0,0,3.11.06l13-12.23A2.23,2.23,0,0,0,796,614l-13.09-14.32A2.23,2.23,0,0,0,779.66,599.57Z" transform="translate(-43.1 -37.14)"/><path d="M800.81,620.72l-13,13.13a2.22,2.22,0,0,0,0,3.11l13.09,13.42a2.22,2.22,0,0,0,3.11.06l13-12.23a2.22,2.22,0,0,0,.12-3.11L804,620.78A2.23,2.23,0,0,0,800.81,620.72Z" transform="translate(-43.1 -37.14)"/><path d="M822,641.87,809,655a2.22,2.22,0,0,0,0,3.11l13.09,13.42a2.22,2.22,0,0,0,3.11.07l13-12.24a2.21,2.21,0,0,0,.12-3.11l-13.09-14.31A2.21,2.21,0,0,0,822,641.87Z" transform="translate(-43.1 -37.14)"/><path d="M843.53,662.6l-13.77,13.95a1.66,1.66,0,0,0,0,2.32l13.87,14.21a1.65,1.65,0,0,0,2.32,0l13.77-13a1.65,1.65,0,0,0,.08-2.32l-13.86-15.16A1.66,1.66,0,0,0,843.53,662.6Z" transform="translate(-43.1 -37.14)"/><path d="M628.2,405.94,616.38,418a3.53,3.53,0,0,0,0,5l33,32.67a3.54,3.54,0,0,0,4.91.06l12.32-11.59a3.54,3.54,0,0,0,.07-5.09l-33.5-33.14A3.53,3.53,0,0,0,628.2,405.94Z" transform="translate(-43.1 -37.14)"/><path d="M844.21,619.28,829.76,634a1.68,1.68,0,0,0,0,2.34l35.61,35.25a1.65,1.65,0,0,0,2.3,0l15.06-14.17a1.65,1.65,0,0,0,0-2.38l-36.23-35.84A1.66,1.66,0,0,0,844.21,619.28Z" transform="translate(-43.1 -37.14)"/><path d="M694,513.82l-13.79,13.66a1.64,1.64,0,0,0,0,2.33l76.79,78.71a1.66,1.66,0,0,0,2.32,0l15-14.15a1.65,1.65,0,0,0,0-2.37l-78-78.21A1.66,1.66,0,0,0,694,513.82Z" transform="translate(-43.1 -37.14)"/></g><path d="M670.13,362.75,659,374a3.53,3.53,0,0,0,0,4.95l11.28,11.57a3.54,3.54,0,0,0,5,.1l11.08-10.46a3.53,3.53,0,0,0,.18-4.95l-11.28-12.34A3.53,3.53,0,0,0,670.13,362.75Z" transform="translate(-43.1 -37.14)" fill="#464a5f"/><path d="M690.87,383.5l-11.09,11.22a3.53,3.53,0,0,0,0,4.95l11.28,11.57a3.53,3.53,0,0,0,5,.1l11.08-10.45a3.55,3.55,0,0,0,.18-5L696,383.59A3.53,3.53,0,0,0,690.87,383.5Z" transform="translate(-43.1 -37.14)" fill="#464a5f"/><path d="M712.65,405.27,701.56,416.5a3.54,3.54,0,0,0,0,4.95L712.83,433a3.54,3.54,0,0,0,5,.1l11.08-10.46a3.53,3.53,0,0,0,.18-5l-11.28-12.34A3.53,3.53,0,0,0,712.65,405.27Z" transform="translate(-43.1 -37.14)" fill="#464a5f"/><path d="M734.67,427.3l-11.08,11.22a3.55,3.55,0,0,0,0,5l11.29,11.57a3.54,3.54,0,0,0,5,.1l11.07-10.46a3.52,3.52,0,0,0,.19-4.95L739.8,427.4A3.54,3.54,0,0,0,734.67,427.3Z" transform="translate(-43.1 -37.14)" fill="#464a5f"/><path d="M756.7,449.33l-11.08,11.22a3.54,3.54,0,0,0,0,5l11.29,11.56a3.54,3.54,0,0,0,5,.11l11.07-10.46a3.52,3.52,0,0,0,.19-5l-11.28-12.34A3.54,3.54,0,0,0,756.7,449.33Z" transform="translate(-43.1 -37.14)" fill="#464a5f"/><path d="M780.12,470,766.35,483.9a1.65,1.65,0,0,0,0,2.31l13.87,14.22a1.66,1.66,0,0,0,2.32.05l13.77-13a1.65,1.65,0,0,0,.08-2.32L782.52,470A1.66,1.66,0,0,0,780.12,470Z" transform="translate(-43.1 -37.14)" fill="#464a5f"/><path d="M802.15,492l-13.77,13.95a1.65,1.65,0,0,0,0,2.31l13.87,14.22a1.66,1.66,0,0,0,2.32,0l13.77-13a1.65,1.65,0,0,0,.08-2.32L804.55,492A1.66,1.66,0,0,0,802.15,492Z" transform="translate(-43.1 -37.14)" fill="#464a5f"/><path d="M821.65,511.48l-13.77,13.95a1.65,1.65,0,0,0,0,2.31L821.74,542a1.66,1.66,0,0,0,2.32,0l13.77-13a1.65,1.65,0,0,0,.08-2.32l-13.86-15.16A1.66,1.66,0,0,0,821.65,511.48Z" transform="translate(-43.1 -37.14)" fill="#464a5f"/><path d="M843.49,533.32l-13.77,13.94a1.65,1.65,0,0,0,0,2.32l13.87,14.21a1.65,1.65,0,0,0,2.32.05l13.77-13a1.66,1.66,0,0,0,.08-2.32l-13.86-15.17A1.66,1.66,0,0,0,843.49,533.32Z" transform="translate(-43.1 -37.14)" fill="#464a5f"/><path d="M864.64,554.47l-13.77,13.94a1.65,1.65,0,0,0,0,2.32L864.73,585a1.66,1.66,0,0,0,2.32,0l13.77-13a1.66,1.66,0,0,0,.08-2.32L867,554.52A1.66,1.66,0,0,0,864.64,554.47Z" transform="translate(-43.1 -37.14)" fill="#464a5f"/><path d="M885.79,575.62l-13.77,14a1.65,1.65,0,0,0,0,2.31l13.87,14.22a1.66,1.66,0,0,0,2.32,0l13.77-13a1.65,1.65,0,0,0,.08-2.32l-13.86-15.16A1.66,1.66,0,0,0,885.79,575.62Z" transform="translate(-43.1 -37.14)" fill="#464a5f"/><path d="M906.94,596.77l-13.77,14a1.66,1.66,0,0,0,0,2.32L907,627.25a1.66,1.66,0,0,0,2.32,0l13.77-13a1.65,1.65,0,0,0,.08-2.32l-13.86-15.16A1.66,1.66,0,0,0,906.94,596.77Z" transform="translate(-43.1 -37.14)" fill="#464a5f"/><path d="M650,382.89l-11.08,11.22a3.53,3.53,0,0,0,0,4.95l11.29,11.57a3.53,3.53,0,0,0,5,.1l11.07-10.45a3.54,3.54,0,0,0,.19-5L655.12,383A3.54,3.54,0,0,0,650,382.89Z" transform="translate(-43.1 -37.14)" fill="#464a5f"/><path d="M606,426.88,594.91,438.1a3.54,3.54,0,0,0,0,5l11.29,11.56a3.53,3.53,0,0,0,4.95.11l11.08-10.46a3.54,3.54,0,0,0,.18-5L611.12,427A3.52,3.52,0,0,0,606,426.88Z" transform="translate(-43.1 -37.14)" fill="#464a5f"/><path d="M670.74,403.63l-11.09,11.22a3.53,3.53,0,0,0,0,4.95l11.28,11.57a3.53,3.53,0,0,0,5,.1L687,421a3.55,3.55,0,0,0,.18-5l-11.28-12.33A3.52,3.52,0,0,0,670.74,403.63Z" transform="translate(-43.1 -37.14)" fill="#464a5f"/><path d="M692.51,425.4l-11.08,11.23a3.53,3.53,0,0,0,0,4.95l11.29,11.57a3.53,3.53,0,0,0,5,.1l11.07-10.45a3.54,3.54,0,0,0,.19-5L697.64,425.5A3.55,3.55,0,0,0,692.51,425.4Z" transform="translate(-43.1 -37.14)" fill="#464a5f"/><path d="M714.54,447.43l-11.08,11.23a3.53,3.53,0,0,0,0,4.95l11.29,11.57a3.53,3.53,0,0,0,4.95.1l11.08-10.45a3.54,3.54,0,0,0,.19-5l-11.28-12.34A3.54,3.54,0,0,0,714.54,447.43Z" transform="translate(-43.1 -37.14)" fill="#464a5f"/><path d="M627.45,446.92l-11.09,11.22a3.53,3.53,0,0,0,0,4.95l11.28,11.57a3.53,3.53,0,0,0,5,.1l11.08-10.45a3.55,3.55,0,0,0,.18-5L632.57,447A3.52,3.52,0,0,0,627.45,446.92Z" transform="translate(-43.1 -37.14)" fill="#464a5f"/><path d="M649.22,468.69l-11.08,11.23a3.53,3.53,0,0,0,0,4.95l11.29,11.57a3.54,3.54,0,0,0,5,.1l11.07-10.45a3.54,3.54,0,0,0,.19-5l-11.28-12.34A3.54,3.54,0,0,0,649.22,468.69Z" transform="translate(-43.1 -37.14)" fill="#464a5f"/><path d="M671.25,490.72,660.17,502a3.53,3.53,0,0,0,0,4.95l11.29,11.57a3.54,3.54,0,0,0,5,.1l11.07-10.46a3.52,3.52,0,0,0,.19-4.95l-11.28-12.34A3.54,3.54,0,0,0,671.25,490.72Z" transform="translate(-43.1 -37.14)" fill="#464a5f"/><path d="M736.57,469.46l-11.08,11.23a3.53,3.53,0,0,0,0,4.95l11.29,11.57a3.53,3.53,0,0,0,5,.1l11.08-10.46a3.52,3.52,0,0,0,.18-5l-11.28-12.34A3.53,3.53,0,0,0,736.57,469.46Z" transform="translate(-43.1 -37.14)" fill="#464a5f"/><path d="M758.6,491.49l-11.09,11.23a3.53,3.53,0,0,0,0,4.95l11.29,11.57a3.53,3.53,0,0,0,5,.1l11.08-10.46a3.52,3.52,0,0,0,.18-4.95l-11.28-12.34A3.53,3.53,0,0,0,758.6,491.49Z" transform="translate(-43.1 -37.14)" fill="#464a5f"/><path d="M782,512.11l-13.77,13.95a1.65,1.65,0,0,0,0,2.32l13.87,14.21a1.65,1.65,0,0,0,2.32,0l13.77-13a1.66,1.66,0,0,0,.08-2.32l-13.86-15.16A1.66,1.66,0,0,0,782,512.11Z" transform="translate(-43.1 -37.14)" fill="#464a5f"/><path d="M801.52,531.61l-13.77,13.95a1.65,1.65,0,0,0,0,2.32l13.87,14.21a1.65,1.65,0,0,0,2.32,0l13.77-13a1.66,1.66,0,0,0,.08-2.32l-13.86-15.16A1.66,1.66,0,0,0,801.52,531.61Z" transform="translate(-43.1 -37.14)" fill="#464a5f"/><path d="M823.36,553.45,809.58,567.4a1.65,1.65,0,0,0,0,2.31l13.86,14.22a1.66,1.66,0,0,0,2.32,0l13.77-13a1.65,1.65,0,0,0,.09-2.32L825.76,553.5A1.66,1.66,0,0,0,823.36,553.45Z" transform="translate(-43.1 -37.14)" fill="#464a5f"/><path d="M844.51,574.6l-13.77,13.95a1.65,1.65,0,0,0,0,2.32l13.86,14.21a1.67,1.67,0,0,0,2.33,0l13.76-13a1.65,1.65,0,0,0,.09-2.32l-13.86-15.16A1.66,1.66,0,0,0,844.51,574.6Z" transform="translate(-43.1 -37.14)" fill="#464a5f"/><path d="M671.58,446.34l-11.09,11.22a3.53,3.53,0,0,0,0,4.95l11.29,11.57a3.52,3.52,0,0,0,5,.1l11.08-10.45a3.54,3.54,0,0,0,.18-5L676.7,446.44A3.52,3.52,0,0,0,671.58,446.34Z" transform="translate(-43.1 -37.14)" fill="#464a5f"/><path d="M693.61,468.37l-11.09,11.22a3.53,3.53,0,0,0,0,5l11.29,11.57a3.52,3.52,0,0,0,5,.1l11.08-10.45a3.55,3.55,0,0,0,.18-5l-11.28-12.33A3.52,3.52,0,0,0,693.61,468.37Z" transform="translate(-43.1 -37.14)" fill="#464a5f"/><path d="M715.64,490.4l-11.09,11.22a3.53,3.53,0,0,0,0,4.95l11.28,11.57a3.53,3.53,0,0,0,5,.1l11.08-10.45a3.55,3.55,0,0,0,.18-5l-11.28-12.34A3.53,3.53,0,0,0,715.64,490.4Z" transform="translate(-43.1 -37.14)" fill="#464a5f"/><path d="M737.67,512.42l-11.09,11.23a3.53,3.53,0,0,0,0,5l11.28,11.57a3.53,3.53,0,0,0,5,.1l11.08-10.45a3.55,3.55,0,0,0,.18-5l-11.28-12.34A3.54,3.54,0,0,0,737.67,512.42Z" transform="translate(-43.1 -37.14)" fill="#464a5f"/><path d="M761.09,533.05,747.31,547a1.66,1.66,0,0,0,0,2.32l13.86,14.21a1.65,1.65,0,0,0,2.32.05l13.77-13a1.66,1.66,0,0,0,.09-2.33l-13.86-15.16A1.65,1.65,0,0,0,761.09,533.05Z" transform="translate(-43.1 -37.14)" fill="#464a5f"/><path d="M780.59,552.55l-13.78,13.94a1.66,1.66,0,0,0,0,2.32L780.67,583a1.65,1.65,0,0,0,2.32.05l13.77-13a1.66,1.66,0,0,0,.09-2.33L783,552.59A1.65,1.65,0,0,0,780.59,552.55Z" transform="translate(-43.1 -37.14)" fill="#464a5f"/><path d="M802.42,574.38l-13.77,14a1.66,1.66,0,0,0,0,2.32l13.86,14.21a1.65,1.65,0,0,0,2.32,0l13.77-13a1.65,1.65,0,0,0,.09-2.32l-13.87-15.16A1.66,1.66,0,0,0,802.42,574.38Z" transform="translate(-43.1 -37.14)" fill="#464a5f"/><path d="M823.58,595.54,809.8,609.48a1.66,1.66,0,0,0,0,2.32L823.66,626a1.65,1.65,0,0,0,2.32,0l13.77-13a1.65,1.65,0,0,0,.09-2.32L826,595.58A1.64,1.64,0,0,0,823.58,595.54Z" transform="translate(-43.1 -37.14)" fill="#464a5f"/><path d="M865.66,595.75l-13.77,14a1.65,1.65,0,0,0,0,2.32l13.87,14.21a1.65,1.65,0,0,0,2.32,0l13.77-13a1.66,1.66,0,0,0,.08-2.32L868.06,595.8A1.66,1.66,0,0,0,865.66,595.75Z" transform="translate(-43.1 -37.14)" fill="#464a5f"/><path d="M886.81,616.9l-13.77,14a1.65,1.65,0,0,0,0,2.32l13.87,14.21a1.65,1.65,0,0,0,2.32,0l13.77-13a1.66,1.66,0,0,0,.08-2.32L889.21,617A1.66,1.66,0,0,0,886.81,616.9Z" transform="translate(-43.1 -37.14)" fill="#464a5f"/><path d="M779.66,597.15l-13,13.13a2.22,2.22,0,0,0,0,3.11l13.09,13.42a2.22,2.22,0,0,0,3.11.06l13-12.23a2.23,2.23,0,0,0,.12-3.11l-13.09-14.32A2.23,2.23,0,0,0,779.66,597.15Z" transform="translate(-43.1 -37.14)" fill="#464a5f"/><path d="M800.81,618.3l-13,13.13a2.22,2.22,0,0,0,0,3.11L800.93,648A2.22,2.22,0,0,0,804,648l13-12.23a2.22,2.22,0,0,0,.12-3.11L804,618.36A2.23,2.23,0,0,0,800.81,618.3Z" transform="translate(-43.1 -37.14)" fill="#464a5f"/><path d="M822,639.45l-13,13.13a2.22,2.22,0,0,0,0,3.11l13.09,13.42a2.21,2.21,0,0,0,3.11.06l13-12.23a2.21,2.21,0,0,0,.12-3.11l-13.09-14.32A2.22,2.22,0,0,0,822,639.45Z" transform="translate(-43.1 -37.14)" fill="#464a5f"/><path d="M843.53,660.18l-13.77,14a1.66,1.66,0,0,0,0,2.32l13.87,14.21a1.66,1.66,0,0,0,2.32.05l13.77-13a1.65,1.65,0,0,0,.08-2.32l-13.86-15.16A1.66,1.66,0,0,0,843.53,660.18Z" transform="translate(-43.1 -37.14)" fill="#464a5f"/><path d="M628.2,403.52l-11.82,12.07a3.53,3.53,0,0,0,0,5l33,32.67a3.54,3.54,0,0,0,4.91.06l12.32-11.59a3.54,3.54,0,0,0,.07-5.09l-33.5-33.14A3.53,3.53,0,0,0,628.2,403.52Z" transform="translate(-43.1 -37.14)" fill="#464a5f"/><path d="M844.21,616.86l-14.45,14.75a1.68,1.68,0,0,0,0,2.34l35.61,35.25a1.65,1.65,0,0,0,2.3,0l15.06-14.17a1.65,1.65,0,0,0,0-2.38l-36.23-35.84A1.65,1.65,0,0,0,844.21,616.86Z" transform="translate(-43.1 -37.14)" fill="#464a5f"/><path d="M694,511.4l-13.79,13.66a1.64,1.64,0,0,0,0,2.33l76.79,78.71a1.66,1.66,0,0,0,2.32,0l15-14.15a1.65,1.65,0,0,0,0-2.37l-78-78.21A1.66,1.66,0,0,0,694,511.4Z" transform="translate(-43.1 -37.14)" fill="#464a5f"/><path d="M639.83,521,579.2,581.23a9,9,0,0,0-.1,12.66L691.24,709.05a9,9,0,0,0,12.76.14l62.43-61.41a9,9,0,0,0,.05-12.77L652.54,521A9,9,0,0,0,639.83,521Z" transform="translate(-43.1 -37.14)" opacity="0.1"/><path d="M639.83,518.53,579.2,578.81a9,9,0,0,0-.1,12.66L691.24,706.63a9,9,0,0,0,12.76.14l62.43-61.41a9,9,0,0,0,.05-12.77l-113.94-114A9,9,0,0,0,639.83,518.53Z" transform="translate(-43.1 -37.14)" fill="#939498"/><path d="M698.07,202.46,682.72,309.78,967.14,593.29l14.48-106.38a18.8,18.8,0,0,0-5.35-15.83L704.38,200.34A3.72,3.72,0,0,0,698.07,202.46Z" transform="translate(-43.1 -37.14)" fill="#28a745"/><ellipse cx="295.09" cy="682.36" rx="23.11" ry="3.17" fill="#28a745" opacity="0.1"/><ellipse cx="206.55" cy="691.34" rx="23.11" ry="3.17" fill="#28a745" opacity="0.1"/><ellipse cx="102.27" cy="679.19" rx="23.11" ry="3.17" fill="#28a745" opacity="0.1"/><ellipse cx="241.99" cy="716.9" rx="16.43" ry="2.26" fill="#28a745" opacity="0.1"/><ellipse cx="150.1" cy="714.64" rx="16.43" ry="2.26" fill="#28a745" opacity="0.1"/><path d="M249.16,727.77S281.57,621.51,244.08,579c-28-31.84-59.87-28-74.13-24.09a26.34,26.34,0,0,0-17,14.12c-5,10.76-4.08,28.21,31.1,48.58,58.92,34.11,62.58,80.9,62.58,80.9Z" transform="translate(-43.1 -37.14)" fill="#28a745"/><path d="M175,569.93s95.56,29.87,74.14,157.84" transform="translate(-43.1 -37.14)" fill="none" stroke="#565987" stroke-miterlimit="10"/><path d="M230.83,580.64s-13.15,8.86-9,22.19" transform="translate(-43.1 -37.14)" fill="none" stroke="#565987" stroke-miterlimit="10"/><path d="M184.61,588.53s8-8.18,17.83-3.67" transform="translate(-43.1 -37.14)" fill="none" stroke="#565987" stroke-miterlimit="10"/><path d="M222.38,629.68s14.12-7.17,17.78,1.81" transform="translate(-43.1 -37.14)" fill="none" stroke="#565987" stroke-miterlimit="10"/><path d="M257.33,644.62s-10.61-.84-10.8,4.23" transform="translate(-43.1 -37.14)" fill="none" stroke="#565987" stroke-miterlimit="10"/><path d="M250.47,728.62s-38-77.23-48.4-75.54c-4.95.8-7.23,5.67-8.26,10.57a31.16,31.16,0,0,0,2.06,18.8C201.26,694.81,215.73,718.28,250.47,728.62Z" transform="translate(-43.1 -37.14)" fill="#28a745"/><path d="M202.36,667.73s39.84,57.79,47.54,60.32" transform="translate(-43.1 -37.14)" fill="none" stroke="#565987" stroke-miterlimit="10"/><line x1="155.59" y1="639.61" x2="164.89" y2="639.61" fill="none" stroke="#565987" stroke-miterlimit="10"/><line x1="166.73" y1="660.75" x2="181.31" y2="661.37" fill="none" stroke="#565987" stroke-miterlimit="10"/><line x1="175.6" y1="643.84" x2="174.02" y2="651.43" fill="none" stroke="#565987" stroke-miterlimit="10"/><line x1="191.11" y1="666.95" x2="190.82" y2="673.85" fill="none" stroke="#565987" stroke-miterlimit="10"/><path d="M249.34,728.62s38-77.23,48.39-75.54c5,.8,7.24,5.67,8.27,10.57a31.08,31.08,0,0,1-2.07,18.8C298.55,694.81,284.08,718.28,249.34,728.62Z" transform="translate(-43.1 -37.14)" fill="#28a745"/><path d="M297.45,667.73s-39.85,57.79-47.55,60.32" transform="translate(-43.1 -37.14)" fill="none" stroke="#565987" stroke-miterlimit="10"/><line x1="258.01" y1="639.61" x2="248.71" y2="639.61" fill="none" stroke="#565987" stroke-miterlimit="10"/><line x1="246.87" y1="660.75" x2="232.29" y2="661.37" fill="none" stroke="#565987" stroke-miterlimit="10"/><line x1="238" y1="643.84" x2="239.58" y2="651.43" fill="none" stroke="#565987" stroke-miterlimit="10"/><line x1="222.5" y1="666.95" x2="222.78" y2="673.85" fill="none" stroke="#565987" stroke-miterlimit="10"/><path d="M184.15,746.65a6.55,6.55,0,0,1-2.16-3.26,2.9,2.9,0,0,1,1.51-3.32c1.39-.53,2.87.43,4,1.4s2.42,2.08,3.89,1.88a5.9,5.9,0,0,1-1.83-5.53,2.25,2.25,0,0,1,.51-1.13c.77-.82,2.16-.47,3.08.18,2.94,2.06,3.75,6,3.77,9.63a18.14,18.14,0,0,0,.05-4,4.09,4.09,0,0,1,1.49-3.51,4.55,4.55,0,0,1,2.27-.53,4.68,4.68,0,0,1,3.69,1c1.12,1.2.83,3.2-.15,4.52a14.22,14.22,0,0,1-3.81,3.06,8.38,8.38,0,0,0-2.73,2.6,2.77,2.77,0,0,0-.2.46h-8.26A23.05,23.05,0,0,1,184.15,746.65Z" transform="translate(-43.1 -37.14)" fill="#28a745"/><path d="M328.82,715.55a6.61,6.61,0,0,1-2.17-3.26,2.91,2.91,0,0,1,1.51-3.32c1.39-.53,2.87.43,4,1.4s2.41,2.08,3.88,1.87a5.92,5.92,0,0,1-1.83-5.53,2.35,2.35,0,0,1,.51-1.12c.77-.83,2.16-.47,3.09.18,2.93,2.06,3.75,6,3.76,9.62a18.06,18.06,0,0,0,.06-4,4,4,0,0,1,1.49-3.51,4.4,4.4,0,0,1,2.27-.53,4.7,4.7,0,0,1,3.68,1c1.12,1.2.83,3.21-.14,4.53a14.23,14.23,0,0,1-3.82,3,8.66,8.66,0,0,0-2.72,2.6,2.22,2.22,0,0,0-.2.47h-8.27A23,23,0,0,1,328.82,715.55Z" transform="translate(-43.1 -37.14)" fill="#28a745"/><path d="M280.6,746.65a6.55,6.55,0,0,1-2.16-3.26,2.9,2.9,0,0,1,1.51-3.32c1.39-.53,2.87.43,4,1.4s2.42,2.08,3.89,1.88a5.9,5.9,0,0,1-1.83-5.53,2.25,2.25,0,0,1,.51-1.13c.77-.82,2.16-.47,3.08.18,2.93,2.06,3.75,6,3.77,9.63a18.14,18.14,0,0,0,.05-4A4.09,4.09,0,0,1,294.9,739a4.55,4.55,0,0,1,2.27-.53,4.68,4.68,0,0,1,3.69,1c1.12,1.2.83,3.2-.15,4.52a14.22,14.22,0,0,1-3.81,3.06,8.38,8.38,0,0,0-2.73,2.6,2.77,2.77,0,0,0-.2.46h-8.26A23.05,23.05,0,0,1,280.6,746.65Z" transform="translate(-43.1 -37.14)" fill="#28a745"/><path d="M143.87,683.78s-3.1,4.05,1.43,10.16,8.26,11.28,6.75,15.09c0,0-6.83-11.36-12.39-11.51S137.75,690.61,143.87,683.78Z" transform="translate(-43.1 -37.14)" fill="#28a745"/><path d="M143.87,683.78a5.1,5.1,0,0,0-.63,1.27c-5.43,6.37-8.32,12.32-3.1,12.47,4.85.13,10.68,8.82,12.07,11a4.16,4.16,0,0,1-.16.5s-6.83-11.36-12.39-11.51S137.75,690.61,143.87,683.78Z" transform="translate(-43.1 -37.14)" opacity="0.1"/><path d="M138.11,688.94c0,1.43.16,2.58.36,2.58s.36-1.15.36-2.58-.2-.75-.4-.75S138.11,687.51,138.11,688.94Z" transform="translate(-43.1 -37.14)" fill="#ffd037"/><path d="M136.14,690.64c1.25.68,2.34,1.1,2.43.92s-.84-.86-2.09-1.55-.76-.18-.85,0S134.89,690,136.14,690.64Z" transform="translate(-43.1 -37.14)" fill="#ffd037"/><path d="M160.23,683.78s3.09,4.05-1.43,10.16-8.26,11.28-6.75,15.09c0,0,6.83-11.36,12.39-11.51S166.34,690.61,160.23,683.78Z" transform="translate(-43.1 -37.14)" fill="#28a745"/><path d="M160.23,683.78a5.1,5.1,0,0,1,.63,1.27c5.42,6.37,8.31,12.32,3.1,12.47-4.86.13-10.68,8.82-12.08,11a4.2,4.2,0,0,0,.17.5s6.83-11.36,12.39-11.51S166.34,690.61,160.23,683.78Z" transform="translate(-43.1 -37.14)" opacity="0.1"/><path d="M166,688.94c0,1.43-.16,2.58-.35,2.58s-.36-1.15-.36-2.58.2-.75.4-.75S166,687.51,166,688.94Z" transform="translate(-43.1 -37.14)" fill="#ffd037"/><path d="M168,690.64c-1.25.68-2.34,1.1-2.44.92s.85-.86,2.1-1.55.76-.18.85,0S169.21,690,168,690.64Z" transform="translate(-43.1 -37.14)" fill="#ffd037"/><path d="M165,708.5s-8.66-.27-11.27-2.12-13.32-4.08-14-1.1-13,14.82-3.23,14.9,22.71-1.52,25.32-3.11S165,708.5,165,708.5Z" transform="translate(-43.1 -37.14)" fill="#a8a8a8"/><path d="M136.35,719.14c9.78.08,22.72-1.52,25.32-3.11,2-1.21,2.77-5.54,3-7.54H165s-.55,7-3.15,8.57-15.55,3.19-25.32,3.11c-2.82,0-3.8-1-3.75-2.51C133.18,718.56,134.25,719.12,136.35,719.14Z" transform="translate(-43.1 -37.14)" opacity="0.2"/><circle cx="21.63" cy="133.13" r="21.63" fill="#28a745" opacity="0.1"/><circle cx="608.74" cy="41.99" r="21.63" fill="#28a745" opacity="0.1"/><circle cx="951.89" cy="127.44" r="21.63" fill="#28a745" opacity="0.1"/><circle cx="64.88" cy="252.46" r="36.25" fill="#28a745" opacity="0.1"/><circle cx="507.64" cy="789.47" r="36.25" fill="#28a745" opacity="0.1"/><circle cx="990.55" cy="768.57" r="36.25" fill="#28a745" opacity="0.1"/></svg>